ffmpeg started on 2026-01-19 at 15:07:20
Report written to "D:\Convert\FFMetrics\reports\psnr_report-6.txt"
Log level: 32
Command line:
ffmpeg -hide_banner -nostdin -r 24000/1001 -i "F:\\Convert\\files\\[DC] Make Heroine ga Oosugiru - 07_Telegram_HEVC(189).mkv" -r 24000/1001 -i "F:\\Convert\\files\\[DC] Make Heroine ga Oosugiru - 07_Telegram.mp4" -lavfi "[0:v]settb=AVTB,setpts=PTS-STARTPTS,format=pix_fmts=yuv420p10le,fps=24000/1001,scale=1920:1080:flags=lanczos:param0=3:out_range=limited:out_color_matrix=bt709:out_chroma_loc=left,setsar=1/1,setdar=(1920/1080)*(1/1),colorspace=format=yuv420p10:range=tv:primaries=bt709:trc=bt709:space=bt709:fast=0[main];[1:v]settb=AVTB,setpts=PTS-STARTPTS,format=pix_fmts=yuv420p,fps=24000/1001,scale=1920:1080:flags=lanczos:param0=3:out_range=limited:out_color_matrix=bt709:out_chroma_loc=left,setsar=1.000,setdar=1.778,colorspace=format=yuv420p:range=tv:primaries=bt709:trc=bt709:space=bt709:fast=0[ref];[main][ref]psnr=eof_action=endall:stats_file='D\\:/Convert/FFMetrics/logs/psnr_logfile-6.txt'" -f null -
Input #0, matroska,webm, from 'F:\Convert\files\[DC] Make Heroine ga Oosugiru - 07_Telegram_HEVC(189).mkv':
  Metadata:
    COMPATIBLE_BRANDS: isomiso2avc1mp41
    MAJOR_BRAND     : isom
    MINOR_VERSION   : 512
    ENCODER         : Lavf61.7.100
  Duration: 00:24:06.79, start: -0.021000, bitrate: 971 kb/s
  Stream #0:0: Video: hevc (Main 10), yuv420p10le(tv, bt709, progressive), 1920x1080 [SAR 1:1 DAR 16:9], 23.98 fps, 23.98 tbr, 1k tbn (default)
      Metadata:
        HANDLER_NAME    : VideoHandler
        VENDOR_ID       : [0][0][0][0]
        ENCODER         : Lavc61.19.100 libx265
        BPS             : 774708
        DURATION        : 00:24:06.569708333
        NUMBER_OF_FRAMES: 34683
        NUMBER_OF_BYTES : 140083619
        _STATISTICS_WRITING_APP: mkvpropedit v94.0 ('Initiate') 64-bit
        _STATISTICS_WRITING_DATE_UTC: 2026-01-19 11:26:26
        _STATISTICS_TAGS: BPS DURATION NUMBER_OF_FRAMES NUMBER_OF_BYTES
  Stream #0:1: Audio: aac (LC), 48000 Hz, stereo, fltp (default)
      Metadata:
        HANDLER_NAME    : SoundHandler
        VENDOR_ID       : [0][0][0][0]
        ENCODER         : Lavc61.19.100 aac
        BPS             : 193194
        DURATION        : 00:24:06.784000000
        NUMBER_OF_FRAMES: 67819
        NUMBER_OF_BYTES : 34938755
        _STATISTICS_WRITING_APP: mkvpropedit v94.0 ('Initiate') 64-bit
        _STATISTICS_WRITING_DATE_UTC: 2026-01-19 11:26:26
        _STATISTICS_TAGS: BPS DURATION NUMBER_OF_FRAMES NUMBER_OF_BYTES
Input #1, mov,mp4,m4a,3gp,3g2,mj2, from 'F:\Convert\files\[DC] Make Heroine ga Oosugiru - 07_Telegram.mp4':
  Metadata:
    major_brand     : isom
    minor_version   : 512
    compatible_brands: isomiso2avc1mp41
    encoder         : Lavf60.16.100
  Duration: 00:24:06.74, start: 0.000000, bitrate: 3764 kb/s
  Stream #1:0[0x1](und): Video: h264 (High) (avc1 / 0x31637661), yuv420p(tv, bt709, progressive), 1920x1080 [SAR 1:1 DAR 16:9], 3616 kb/s, 23.98 fps, 23.98 tbr, 24k tbn (default)
      Metadata:
        handler_name    : VideoHandler
        vendor_id       : [0][0][0][0]
        encoder         : Lavc60.31.102 h264_qsv
  Stream #1:1[0x2](und): Audio: aac (HE-AACv2) (mp4a / 0x6134706D), 48000 Hz, stereo, fltp, 144 kb/s (default)
      Metadata:
        handler_name    : SoundHandler
        vendor_id       : [0][0][0][0]
Stream mapping:
  Stream #0:0 (hevc) -> settb:default
  Stream #1:0 (h264) -> settb:default
  psnr:default -> Stream #0:0 (wrapped_avframe)
  Stream #0:1 -> #0:1 (aac (native) -> pcm_s16le (native))
Output #0, null, to 'pipe:':
  Metadata:
    COMPATIBLE_BRANDS: isomiso2avc1mp41
    MAJOR_BRAND     : isom
    MINOR_VERSION   : 512
    encoder         : Lavf61.7.100
  Stream #0:0: Video: wrapped_avframe, yuv420p10le(tv, bt709, progressive), 1920x1080 [SAR 1:1 DAR 16:9], q=2-31, 200 kb/s, 23.98 fps, 23.98 tbn
      Metadata:
        encoder         : Lavc61.19.100 wrapped_avframe
  Stream #0:1: Audio: pcm_s16le, 48000 Hz, stereo, s16, 1536 kb/s (default)
      Metadata:
        HANDLER_NAME    : SoundHandler
        VENDOR_ID       : [0][0][0][0]
        _STATISTICS_TAGS: BPS DURATION NUMBER_OF_FRAMES NUMBER_OF_BYTES
        BPS             : 193194
        DURATION        : 00:24:06.784000000
        NUMBER_OF_FRAMES: 67819
        NUMBER_OF_BYTES : 34938755
        _STATISTICS_WRITING_APP: mkvpropedit v94.0 ('Initiate') 64-bit
        _STATISTICS_WRITING_DATE_UTC: 2026-01-19 11:26:26
        encoder         : Lavc61.19.100 pcm_s16le
frame=  125 fps=0.0 q=-0.0 size=N/A time=00:00:05.21 bitrate=N/A speed=10.1x    frame=  311 fps=303 q=-0.0 size=N/A time=00:00:12.97 bitrate=N/A speed=12.6x    frame=  504 fps=324 q=-0.0 size=N/A time=00:00:21.02 bitrate=N/A speed=13.5x    frame=  693 fps=336 q=-0.0 size=N/A time=00:00:28.90 bitrate=N/A speed=  14x    frame=  878 fps=341 q=-0.0 size=N/A time=00:00:36.61 bitrate=N/A speed=14.2x    frame= 1014 fps=327 q=-0.0 size=N/A time=00:00:42.29 bitrate=N/A speed=13.6x    frame= 1170 fps=324 q=-0.0 size=N/A time=00:00:48.79 bitrate=N/A speed=13.5x    frame= 1323 fps=320 q=-0.0 size=N/A time=00:00:55.18 bitrate=N/A speed=13.3x    frame= 1468 fps=316 q=-0.0 size=N/A time=00:01:01.22 bitrate=N/A speed=13.2x    frame= 1598 fps=310 q=-0.0 size=N/A time=00:01:06.64 bitrate=N/A speed=12.9x    frame= 1751 fps=308 q=-0.0 size=N/A time=00:01:13.03 bitrate=N/A speed=12.9x    frame= 1902 fps=307 q=-0.0 size=N/A time=00:01:19.32 bitrate=N/A speed=12.8x    frame= 2049 fps=306 q=-0.0 size=N/A time=00:01:25.46 bitrate=N/A speed=12.8x    frame= 2156 fps=298 q=-0.0 size=N/A time=00:01:29.92 bitrate=N/A speed=12.4x    frame= 2292 fps=296 q=-0.0 size=N/A time=00:01:35.59 bitrate=N/A speed=12.4x    frame= 2428 fps=294 q=-0.0 size=N/A time=00:01:41.26 bitrate=N/A speed=12.3x    frame= 2555 fps=291 q=-0.0 size=N/A time=00:01:46.56 bitrate=N/A speed=12.2x    frame= 2723 fps=293 q=-0.0 size=N/A time=00:01:53.57 bitrate=N/A speed=12.2x    frame= 2886 fps=295 q=-0.0 size=N/A time=00:02:00.37 bitrate=N/A speed=12.3x    frame= 3068 fps=297 q=-0.0 size=N/A time=00:02:07.96 bitrate=N/A speed=12.4x    frame= 3246 fps=300 q=-0.0 size=N/A time=00:02:15.38 bitrate=N/A speed=12.5x    frame= 3433 fps=303 q=-0.0 size=N/A time=00:02:23.18 bitrate=N/A speed=12.6x    frame= 3620 fps=305 q=-0.0 size=N/A time=00:02:30.98 bitrate=N/A speed=12.7x    frame= 3819 fps=309 q=-0.0 size=N/A time=00:02:39.28 bitrate=N/A speed=12.9x    frame= 4004 fps=311 q=-0.0 size=N/A time=00:02:47.00 bitrate=N/A speed=  13x    frame= 4197 fps=313 q=-0.0 size=N/A time=00:02:55.04 bitrate=N/A speed=13.1x    frame= 4384 fps=315 q=-0.0 size=N/A time=00:03:02.84 bitrate=N/A speed=13.1x    frame= 4576 fps=317 q=-0.0 size=N/A time=00:03:10.85 bitrate=N/A speed=13.2x    frame= 4764 fps=319 q=-0.0 size=N/A time=00:03:18.69 bitrate=N/A speed=13.3x    frame= 4959 fps=321 q=-0.0 size=N/A time=00:03:26.83 bitrate=N/A speed=13.4x    frame= 5149 fps=322 q=-0.0 size=N/A time=00:03:34.75 bitrate=N/A speed=13.4x    frame= 5343 fps=324 q=-0.0 size=N/A time=00:03:42.84 bitrate=N/A speed=13.5x    frame= 5532 fps=325 q=-0.0 size=N/A time=00:03:50.73 bitrate=N/A speed=13.6x    frame= 5733 fps=327 q=-0.0 size=N/A time=00:03:59.11 bitrate=N/A speed=13.6x    frame= 5922 fps=328 q=-0.0 size=N/A time=00:04:06.99 bitrate=N/A speed=13.7x    frame= 6110 fps=329 q=-0.0 size=N/A time=00:04:14.83 bitrate=N/A speed=13.7x    frame= 6316 fps=331 q=-0.0 size=N/A time=00:04:23.42 bitrate=N/A speed=13.8x    frame= 6510 fps=332 q=-0.0 size=N/A time=00:04:31.52 bitrate=N/A speed=13.9x    frame= 6705 fps=333 q=-0.0 size=N/A time=00:04:39.65 bitrate=N/A speed=13.9x    frame= 6899 fps=335 q=-0.0 size=N/A time=00:04:47.74 bitrate=N/A speed=  14x    frame= 7083 fps=335 q=-0.0 size=N/A time=00:04:55.42 bitrate=N/A speed=  14x    frame= 7271 fps=336 q=-0.0 size=N/A time=00:05:03.26 bitrate=N/A speed=  14x    frame= 7449 fps=336 q=-0.0 size=N/A time=00:05:10.68 bitrate=N/A speed=  14x    frame= 7632 fps=336 q=-0.0 size=N/A time=00:05:18.31 bitrate=N/A speed=  14x    frame= 7818 fps=337 q=-0.0 size=N/A time=00:05:26.07 bitrate=N/A speed=14.1x    frame= 8002 fps=337 q=-0.0 size=N/A time=00:05:33.75 bitrate=N/A speed=14.1x    frame= 8187 fps=338 q=-0.0 size=N/A time=00:05:41.46 bitrate=N/A speed=14.1x    frame= 8375 fps=338 q=-0.0 size=N/A time=00:05:49.30 bitrate=N/A speed=14.1x    frame= 8561 fps=339 q=-0.0 size=N/A time=00:05:57.06 bitrate=N/A speed=14.1x    frame= 8757 fps=340 q=-0.0 size=N/A time=00:06:05.23 bitrate=N/A speed=14.2x    frame= 8950 fps=340 q=-0.0 size=N/A time=00:06:13.28 bitrate=N/A speed=14.2x    frame= 9143 fps=341 q=-0.0 size=N/A time=00:06:21.33 bitrate=N/A speed=14.2x    frame= 9338 fps=342 q=-0.0 size=N/A time=00:06:29.47 bitrate=N/A speed=14.3x    frame= 9531 fps=342 q=-0.0 size=N/A time=00:06:37.52 bitrate=N/A speed=14.3x    frame= 9721 fps=343 q=-0.0 size=N/A time=00:06:45.44 bitrate=N/A speed=14.3x    frame= 9903 fps=343 q=-0.0 size=N/A time=00:06:53.03 bitrate=N/A speed=14.3x    frame=10097 fps=344 q=-0.0 size=N/A time=00:07:01.12 bitrate=N/A speed=14.3x    frame=10291 fps=344 q=-0.0 size=N/A time=00:07:09.22 bitrate=N/A speed=14.3x    frame=10478 fps=344 q=-0.0 size=N/A time=00:07:17.01 bitrate=N/A speed=14.4x    frame=10667 fps=345 q=-0.0 size=N/A time=00:07:24.90 bitrate=N/A speed=14.4x    frame=10847 fps=345 q=-0.0 size=N/A time=00:07:32.41 bitrate=N/A speed=14.4x    frame=11035 fps=345 q=-0.0 size=N/A time=00:07:40.25 bitrate=N/A speed=14.4x    frame=11227 fps=346 q=-0.0 size=N/A time=00:07:48.25 bitrate=N/A speed=14.4x    frame=11416 fps=346 q=-0.0 size=N/A time=00:07:56.14 bitrate=N/A speed=14.4x    frame=11624 fps=347 q=-0.0 size=N/A time=00:08:04.81 bitrate=N/A speed=14.5x    frame=11815 fps=347 q=-0.0 size=N/A time=00:08:12.78 bitrate=N/A speed=14.5x    frame=12010 fps=348 q=-0.0 size=N/A time=00:08:20.91 bitrate=N/A speed=14.5x    frame=12207 fps=348 q=-0.0 size=N/A time=00:08:29.13 bitrate=N/A speed=14.5x    frame=12403 fps=349 q=-0.0 size=N/A time=00:08:37.30 bitrate=N/A speed=14.5x    frame=12599 fps=349 q=-0.0 size=N/A time=00:08:45.48 bitrate=N/A speed=14.6x    frame=12792 fps=349 q=-0.0 size=N/A time=00:08:53.53 bitrate=N/A speed=14.6x    frame=12993 fps=350 q=-0.0 size=N/A time=00:09:01.91 bitrate=N/A speed=14.6x    frame=13190 fps=350 q=-0.0 size=N/A time=00:09:10.13 bitrate=N/A speed=14.6x    frame=13376 fps=351 q=-0.0 size=N/A time=00:09:17.89 bitrate=N/A speed=14.6x    frame=13575 fps=351 q=-0.0 size=N/A time=00:09:26.19 bitrate=N/A speed=14.6x    frame=13770 fps=351 q=-0.0 size=N/A time=00:09:34.32 bitrate=N/A speed=14.7x    frame=13965 fps=352 q=-0.0 size=N/A time=00:09:42.45 bitrate=N/A speed=14.7x    frame=14144 fps=352 q=-0.0 size=N/A time=00:09:49.92 bitrate=N/A speed=14.7x    frame=14343 fps=352 q=-0.0 size=N/A time=00:09:58.22 bitrate=N/A speed=14.7x    frame=14534 fps=352 q=-0.0 size=N/A time=00:10:06.18 bitrate=N/A speed=14.7x    frame=14724 fps=353 q=-0.0 size=N/A time=00:10:14.11 bitrate=N/A speed=14.7x    frame=14926 fps=353 q=-0.0 size=N/A time=00:10:22.53 bitrate=N/A speed=14.7x    frame=15104 fps=353 q=-0.0 size=N/A time=00:10:29.96 bitrate=N/A speed=14.7x    frame=15278 fps=353 q=-0.0 size=N/A time=00:10:37.21 bitrate=N/A speed=14.7x    frame=15481 fps=353 q=-0.0 size=N/A time=00:10:45.68 bitrate=N/A speed=14.7x    frame=15679 fps=353 q=-0.0 size=N/A time=00:10:53.94 bitrate=N/A speed=14.7x    frame=15878 fps=354 q=-0.0 size=N/A time=00:11:02.24 bitrate=N/A speed=14.8x    frame=16069 fps=354 q=-0.0 size=N/A time=00:11:10.21 bitrate=N/A speed=14.8x    frame=16272 fps=354 q=-0.0 size=N/A time=00:11:18.67 bitrate=N/A speed=14.8x    frame=16468 fps=355 q=-0.0 size=N/A time=00:11:26.85 bitrate=N/A speed=14.8x    frame=16660 fps=355 q=-0.0 size=N/A time=00:11:34.86 bitrate=N/A speed=14.8x    frame=16859 fps=355 q=-0.0 size=N/A time=00:11:43.16 bitrate=N/A speed=14.8x    frame=17056 fps=356 q=-0.0 size=N/A time=00:11:51.37 bitrate=N/A speed=14.8x    frame=17257 fps=356 q=-0.0 size=N/A time=00:11:59.76 bitrate=N/A speed=14.8x    frame=17454 fps=356 q=-0.0 size=N/A time=00:12:07.97 bitrate=N/A speed=14.9x    frame=17640 fps=356 q=-0.0 size=N/A time=00:12:15.73 bitrate=N/A speed=14.9x    frame=17837 fps=356 q=-0.0 size=N/A time=00:12:23.95 bitrate=N/A speed=14.9x    frame=18037 fps=357 q=-0.0 size=N/A time=00:12:32.29 bitrate=N/A speed=14.9x    frame=18220 fps=357 q=-0.0 size=N/A time=00:12:39.92 bitrate=N/A speed=14.9x    frame=18399 fps=357 q=-0.0 size=N/A time=00:12:47.39 bitrate=N/A speed=14.9x    frame=18601 fps=357 q=-0.0 size=N/A time=00:12:55.81 bitrate=N/A speed=14.9x    frame=18804 fps=357 q=-0.0 size=N/A time=00:13:04.28 bitrate=N/A speed=14.9x    frame=18987 fps=357 q=-0.0 size=N/A time=00:13:11.91 bitrate=N/A speed=14.9x    frame=19195 fps=358 q=-0.0 size=N/A time=00:13:20.59 bitrate=N/A speed=14.9x    frame=19389 fps=358 q=-0.0 size=N/A time=00:13:28.68 bitrate=N/A speed=14.9x    frame=19592 fps=358 q=-0.0 size=N/A time=00:13:37.14 bitrate=N/A speed=14.9x    frame=19782 fps=358 q=-0.0 size=N/A time=00:13:45.07 bitrate=N/A speed=  15x    frame=19991 fps=359 q=-0.0 size=N/A time=00:13:53.79 bitrate=N/A speed=  15x    frame=20186 fps=359 q=-0.0 size=N/A time=00:14:01.92 bitrate=N/A speed=  15x    frame=20377 fps=359 q=-0.0 size=N/A time=00:14:09.89 bitrate=N/A speed=  15x    frame=20567 fps=359 q=-0.0 size=N/A time=00:14:17.81 bitrate=N/A speed=  15x    frame=20753 fps=359 q=-0.0 size=N/A time=00:14:25.57 bitrate=N/A speed=  15x    frame=20957 fps=360 q=-0.0 size=N/A time=00:14:34.08 bitrate=N/A speed=  15x    frame=21148 fps=360 q=-0.0 size=N/A time=00:14:42.04 bitrate=N/A speed=  15x    frame=21349 fps=360 q=-0.0 size=N/A time=00:14:50.43 bitrate=N/A speed=  15x    frame=21551 fps=360 q=-0.0 size=N/A time=00:14:58.85 bitrate=N/A speed=  15x    frame=21745 fps=360 q=-0.0 size=N/A time=00:15:06.94 bitrate=N/A speed=  15x    frame=21941 fps=361 q=-0.0 size=N/A time=00:15:15.12 bitrate=N/A speed=  15x    frame=22150 fps=361 q=-0.0 size=N/A time=00:15:23.83 bitrate=N/A speed=15.1x    frame=22347 fps=361 q=-0.0 size=N/A time=00:15:32.05 bitrate=N/A speed=15.1x    frame=22538 fps=361 q=-0.0 size=N/A time=00:15:40.02 bitrate=N/A speed=15.1x    frame=22736 fps=361 q=-0.0 size=N/A time=00:15:48.28 bitrate=N/A speed=15.1x    frame=22935 fps=361 q=-0.0 size=N/A time=00:15:56.58 bitrate=N/A speed=15.1x    frame=23137 fps=362 q=-0.0 size=N/A time=00:16:05.00 bitrate=N/A speed=15.1x    frame=23337 fps=362 q=-0.0 size=N/A time=00:16:13.34 bitrate=N/A speed=15.1x    frame=23529 fps=362 q=-0.0 size=N/A time=00:16:21.35 bitrate=N/A speed=15.1x    frame=23721 fps=362 q=-0.0 size=N/A time=00:16:29.36 bitrate=N/A speed=15.1x    frame=23924 fps=362 q=-0.0 size=N/A time=00:16:37.83 bitrate=N/A speed=15.1x    frame=24120 fps=362 q=-0.0 size=N/A time=00:16:46.00 bitrate=N/A speed=15.1x    frame=24313 fps=363 q=-0.0 size=N/A time=00:16:54.05 bitrate=N/A speed=15.1x    frame=24512 fps=363 q=-0.0 size=N/A time=00:17:02.35 bitrate=N/A speed=15.1x    frame=24716 fps=363 q=-0.0 size=N/A time=00:17:10.90 bitrate=N/A speed=15.1x    frame=24912 fps=363 q=-0.0 size=N/A time=00:17:19.03 bitrate=N/A speed=15.1x    frame=25106 fps=363 q=-0.0 size=N/A time=00:17:27.12 bitrate=N/A speed=15.1x    frame=25316 fps=363 q=-0.0 size=N/A time=00:17:35.88 bitrate=N/A speed=15.2x    frame=25514 fps=364 q=-0.0 size=N/A time=00:17:44.14 bitrate=N/A speed=15.2x    frame=25709 fps=364 q=-0.0 size=N/A time=00:17:52.27 bitrate=N/A speed=15.2x    frame=25901 fps=364 q=-0.0 size=N/A time=00:18:00.28 bitrate=N/A speed=15.2x    frame=26105 fps=364 q=-0.0 size=N/A time=00:18:08.79 bitrate=N/A speed=15.2x    frame=26303 fps=364 q=-0.0 size=N/A time=00:18:17.05 bitrate=N/A speed=15.2x    frame=26502 fps=364 q=-0.0 size=N/A time=00:18:25.35 bitrate=N/A speed=15.2x    frame=26698 fps=365 q=-0.0 size=N/A time=00:18:33.52 bitrate=N/A speed=15.2x    frame=26897 fps=365 q=-0.0 size=N/A time=00:18:41.82 bitrate=N/A speed=15.2x    frame=27078 fps=365 q=-0.0 size=N/A time=00:18:49.37 bitrate=N/A speed=15.2x    frame=27264 fps=365 q=-0.0 size=N/A time=00:18:57.13 bitrate=N/A speed=15.2x    frame=27457 fps=365 q=-0.0 size=N/A time=00:19:05.18 bitrate=N/A speed=15.2x    frame=27651 fps=365 q=-0.0 size=N/A time=00:19:13.27 bitrate=N/A speed=15.2x    frame=27846 fps=365 q=-0.0 size=N/A time=00:19:21.41 bitrate=N/A speed=15.2x    frame=28040 fps=365 q=-0.0 size=N/A time=00:19:29.50 bitrate=N/A speed=15.2x    frame=28235 fps=365 q=-0.0 size=N/A time=00:19:37.63 bitrate=N/A speed=15.2x    frame=28432 fps=365 q=-0.0 size=N/A time=00:19:45.85 bitrate=N/A speed=15.2x    frame=28626 fps=365 q=-0.0 size=N/A time=00:19:53.94 bitrate=N/A speed=15.2x    frame=28806 fps=365 q=-0.0 size=N/A time=00:20:01.45 bitrate=N/A speed=15.2x    frame=28986 fps=365 q=-0.0 size=N/A time=00:20:08.95 bitrate=N/A speed=15.2x    frame=29166 fps=365 q=-0.0 size=N/A time=00:20:16.46 bitrate=N/A speed=15.2x    frame=29356 fps=365 q=-0.0 size=N/A time=00:20:24.38 bitrate=N/A speed=15.2x    frame=29535 fps=365 q=-0.0 size=N/A time=00:20:31.85 bitrate=N/A speed=15.2x    frame=29712 fps=365 q=-0.0 size=N/A time=00:20:39.23 bitrate=N/A speed=15.2x    frame=29890 fps=364 q=-0.0 size=N/A time=00:20:46.66 bitrate=N/A speed=15.2x    frame=30057 fps=364 q=-0.0 size=N/A time=00:20:53.62 bitrate=N/A speed=15.2x    frame=30252 fps=364 q=-0.0 size=N/A time=00:21:01.76 bitrate=N/A speed=15.2x    frame=30440 fps=364 q=-0.0 size=N/A time=00:21:09.60 bitrate=N/A speed=15.2x    frame=30636 fps=364 q=-0.0 size=N/A time=00:21:17.77 bitrate=N/A speed=15.2x    frame=30839 fps=365 q=-0.0 size=N/A time=00:21:26.24 bitrate=N/A speed=15.2x    frame=31028 fps=365 q=-0.0 size=N/A time=00:21:34.12 bitrate=N/A speed=15.2x    frame=31222 fps=365 q=-0.0 size=N/A time=00:21:42.21 bitrate=N/A speed=15.2x    frame=31417 fps=365 q=-0.0 size=N/A time=00:21:50.35 bitrate=N/A speed=15.2x    frame=31614 fps=365 q=-0.0 size=N/A time=00:21:58.56 bitrate=N/A speed=15.2x    frame=31798 fps=365 q=-0.0 size=N/A time=00:22:06.24 bitrate=N/A speed=15.2x    frame=31986 fps=365 q=-0.0 size=N/A time=00:22:14.08 bitrate=N/A speed=15.2x    frame=32182 fps=365 q=-0.0 size=N/A time=00:22:22.25 bitrate=N/A speed=15.2x    frame=32372 fps=365 q=-0.0 size=N/A time=00:22:30.18 bitrate=N/A speed=15.2x    frame=32571 fps=365 q=-0.0 size=N/A time=00:22:38.48 bitrate=N/A speed=15.2x    frame=32726 fps=365 q=-0.0 size=N/A time=00:22:44.94 bitrate=N/A speed=15.2x    frame=32884 fps=364 q=-0.0 size=N/A time=00:22:51.53 bitrate=N/A speed=15.2x    frame=33076 fps=364 q=-0.0 size=N/A time=00:22:59.54 bitrate=N/A speed=15.2x    frame=33268 fps=364 q=-0.0 size=N/A time=00:23:07.55 bitrate=N/A speed=15.2x    frame=33444 fps=364 q=-0.0 size=N/A time=00:23:14.89 bitrate=N/A speed=15.2x    frame=33594 fps=364 q=-0.0 size=N/A time=00:23:21.14 bitrate=N/A speed=15.2x    frame=33746 fps=363 q=-0.0 size=N/A time=00:23:27.48 bitrate=N/A speed=15.2x    frame=33874 fps=363 q=-0.0 size=N/A time=00:23:32.82 bitrate=N/A speed=15.1x    frame=34033 fps=363 q=-0.0 size=N/A time=00:23:39.45 bitrate=N/A speed=15.1x    frame=34190 fps=362 q=-0.0 size=N/A time=00:23:46.00 bitrate=N/A speed=15.1x    frame=34337 fps=362 q=-0.0 size=N/A time=00:23:52.13 bitrate=N/A speed=15.1x    frame=34473 fps=361 q=-0.0 size=N/A time=00:23:57.81 bitrate=N/A speed=15.1x    frame=34664 fps=361 q=-0.0 size=N/A time=00:24:05.77 bitrate=N/A speed=15.1x    [Parsed_psnr_16 @ 000002a25b8da380] PSNR y:48.992333 u:50.342745 v:50.392945 average:49.404235 min:37.985605 max:inf
[out#0/null @ 000002a24e42fe80] video:14903KiB audio:271276KiB subtitle:0KiB other streams:0KiB global headers:0KiB muxing overhead: unknown
frame=34683 fps=361 q=-0.0 Lsize=N/A time=00:24:06.57 bitrate=N/A speed=15.1x    
